<?xml version="1.0"?>
<svg xmlns="http://www.w3.org/2000/svg" viewBox="0 0 24 24">
    <path fill="white" d="M19.5,14c-0.696,0-1.324,0.285-1.777,0.743l-0.315-0.158C17.784,13.802,18,12.927,18,12c0-0.699-0.126-1.367-0.345-1.991 l1.56-1.17C19.456,8.942,19.721,9,20,9c1.105,0,2-0.895,2-2c0-1.105-0.895-2-2-2s-2,0.895-2,2c0,0.08,0.014,0.155,0.023,0.233 l-1.348,1.011c-0.657-0.817-1.525-1.455-2.52-1.838l0.203-1.678C14.746,4.456,15,4.009,15,3.5C15,2.672,14.328,2,13.5,2 S12,2.672,12,3.5c0,0.377,0.144,0.718,0.374,0.981L12.189,6.01C12.125,6.008,12.064,6,12,6c-1.036,0-2.011,0.263-2.861,0.725 L6.926,4.512C6.969,4.347,7,4.178,7,4c0-1.105-0.895-2-2-2S3,2.895,3,4c0,1.105,0.895,2,2,2c0.178,0,0.347-0.031,0.512-0.074 L7.56,7.974C7.231,8.337,6.942,8.736,6.709,9.172L4.796,8.757C4.537,8.307,4.057,8,3.5,8C2.672,8,2,8.672,2,9.5S2.672,11,3.5,11 c0.328,0,0.629-0.108,0.876-0.287l1.702,0.369C6.031,11.382,6,11.687,6,12c0,0.768,0.15,1.499,0.412,2.174l-1.899,1.899 C4.348,16.03,4.178,16,4,16c-1.105,0-2,0.874-2,1.953s0.895,1.953,2,1.953s2-0.874,2-1.953c0-0.164-0.027-0.321-0.066-0.473 l1.544-1.544c0.579,0.664,1.299,1.201,2.117,1.56l-0.148,0.592C8.613,18.328,8,19.089,8,20c0,1.105,0.895,2,2,2s2-0.895,2-2 c0-0.564-0.235-1.071-0.61-1.435l0.147-0.589C11.69,17.988,11.844,18,12,18c1.658,0,3.159-0.673,4.245-1.76l0.768,0.384 C17.079,17.946,18.162,19,19.5,19c1.381,0,2.5-1.119,2.5-2.5C22,15.119,20.881,14,19.5,14z M8,13c0-0.552,0.448-1,1-1s1,0.448,1,1 c0,0.552-0.448,1-1,1S8,13.552,8,13z M11.5,10C10.672,10,10,9.328,10,8.5S10.672,7,11.5,7S13,7.672,13,8.5S12.328,10,11.5,10z M14,16c-1.105,0-2-0.895-2-2c0-1.105,0.895-2,2-2s2,0.895,2,2C16,15.105,15.105,16,14,16z"/>
</svg>
