<svg width="96" height="40" viewBox="0 0 96 40" fill="none" xmlns="http://www.w3.org/2000/svg">
<path d="M31.25 23C30.206 23 29.264 23.4275 28.5845 24.1145L28.112 23.8775C28.676 22.703 29 21.3905 29 20C29 18.9515 28.811 17.9495 28.4825 17.0135L30.8225 15.2585C31.184 15.413 31.5815 15.5 32 15.5C33.6575 15.5 35 14.1575 35 12.5C35 10.8425 33.6575 9.5 32 9.5C30.3425 9.5 29 10.8425 29 12.5C29 12.62 29.021 12.7325 29.0345 12.8495L27.0125 14.366C26.027 13.1405 24.725 12.1835 23.2325 11.609L23.537 9.092C24.119 8.684 24.5 8.0135 24.5 7.25C24.5 6.008 23.492 5 22.25 5C21.008 5 20 6.008 20 7.25C20 7.8155 20.216 8.327 20.561 8.7215L20.2835 11.015C20.1875 11.012 20.096 11 20 11C18.446 11 16.9835 11.3945 15.7085 12.0875L12.389 8.768C12.4535 8.5205 12.5 8.267 12.5 8C12.5 6.3425 11.1575 5 9.5 5C7.8425 5 6.5 6.3425 6.5 8C6.5 9.6575 7.8425 11 9.5 11C9.767 11 10.0205 10.9535 10.268 10.889L13.34 13.961C12.8465 14.5055 12.413 15.104 12.0635 15.758L9.194 15.1355C8.8055 14.4605 8.0855 14 7.25 14C6.008 14 5 15.008 5 16.25C5 17.492 6.008 18.5 7.25 18.5C7.742 18.5 8.1935 18.338 8.564 18.0695L11.117 18.623C11.0465 19.073 11 19.5305 11 20C11 21.152 11.225 22.2485 11.618 23.261L8.7695 26.1095C8.522 26.045 8.267 26 8 26C6.3425 26 5 27.311 5 28.9295C5 30.548 6.3425 31.859 8 31.859C9.6575 31.859 11 30.548 11 28.9295C11 28.6835 10.9595 28.448 10.901 28.22L13.217 25.904C14.0855 26.9 15.1655 27.7055 16.3925 28.244L16.1705 29.132C14.9195 29.492 14 30.6335 14 32C14 33.6575 15.3425 35 17 35C18.6575 35 20 33.6575 20 32C20 31.154 19.6475 30.3935 19.085 29.8475L19.3055 28.964C19.535 28.982 19.766 29 20 29C22.487 29 24.7385 27.9905 26.3675 26.36L27.5195 26.936C27.6185 28.919 29.243 30.5 31.25 30.5C33.3215 30.5 35 28.8215 35 26.75C35 24.6785 33.3215 23 31.25 23ZM14 21.5C14 20.672 14.672 20 15.5 20C16.328 20 17 20.672 17 21.5C17 22.328 16.328 23 15.5 23C14.672 23 14 22.328 14 21.5ZM19.25 17C18.008 17 17 15.992 17 14.75C17 13.508 18.008 12.5 19.25 12.5C20.492 12.5 21.5 13.508 21.5 14.75C21.5 15.992 20.492 17 19.25 17ZM23 26C21.3425 26 20 24.6575 20 23C20 21.3425 21.3425 20 23 20C24.6575 20 26 21.3425 26 23C26 24.6575 24.6575 26 23 26Z" fill="white"/>
<path d="M49.5303 9.07715C48.8877 9.07715 48.3864 9.34147 48.0264 9.87012C47.6663 10.3942 47.4863 11.1188 47.4863 12.0439C47.4863 13.9671 48.2178 14.9287 49.6807 14.9287C50.1227 14.9287 50.5511 14.8672 50.9658 14.7441C51.3805 14.6211 51.7975 14.473 52.2168 14.2998V16.583C51.3828 16.9521 50.4395 17.1367 49.3867 17.1367C47.8783 17.1367 46.7207 16.6992 45.9141 15.8242C45.112 14.9492 44.7109 13.6846 44.7109 12.0303C44.7109 10.9958 44.9046 10.0866 45.292 9.30273C45.6839 8.51888 46.2445 7.91732 46.9736 7.49805C47.7074 7.07422 48.5687 6.8623 49.5576 6.8623C50.6377 6.8623 51.6699 7.09701 52.6543 7.56641L51.8271 9.69238C51.458 9.51921 51.0889 9.37337 50.7197 9.25488C50.3506 9.13639 49.9541 9.07715 49.5303 9.07715ZM63.5234 11.9893C63.5234 13.6709 63.111 14.9492 62.2861 15.8242C61.4613 16.6992 60.2536 17.1367 58.6631 17.1367C57.0954 17.1367 55.8923 16.6969 55.0537 15.8174C54.2197 14.9378 53.8027 13.6572 53.8027 11.9756C53.8027 10.3122 54.2174 9.04297 55.0469 8.16797C55.8809 7.28841 57.0908 6.84863 58.6768 6.84863C60.2673 6.84863 61.4727 7.28385 62.293 8.1543C63.1133 9.02474 63.5234 10.3031 63.5234 11.9893ZM56.6465 11.9893C56.6465 13.9215 57.3187 14.8877 58.6631 14.8877C59.3467 14.8877 59.8525 14.653 60.1807 14.1836C60.5133 13.7142 60.6797 12.9827 60.6797 11.9893C60.6797 10.9912 60.5111 10.2552 60.1738 9.78125C59.8411 9.30273 59.3421 9.06348 58.6768 9.06348C57.3232 9.06348 56.6465 10.0387 56.6465 11.9893ZM70.9404 7.00586H73.9619L70.6875 17H67.5088L64.248 7.00586H67.2832L68.6436 12.0713C68.9261 13.1969 69.0811 13.9808 69.1084 14.4229C69.1403 14.1038 69.2041 13.7051 69.2998 13.2266C69.3955 12.748 69.4798 12.3721 69.5527 12.0986L70.9404 7.00586ZM75.0488 17V7.00586H77.7627V17H75.0488ZM88.4131 11.791C88.4131 13.459 87.9528 14.7441 87.0322 15.6465C86.1162 16.5488 84.8265 17 83.1631 17H79.9297V7.00586H83.3887C84.9928 7.00586 86.2301 7.41602 87.1006 8.23633C87.9756 9.05664 88.4131 10.2415 88.4131 11.791ZM85.6104 11.8867C85.6104 10.9707 85.4281 10.2917 85.0635 9.84961C84.7035 9.40755 84.1543 9.18652 83.416 9.18652H82.6299V14.7852H83.2314C84.0518 14.7852 84.6533 14.5482 85.0361 14.0742C85.4189 13.5957 85.6104 12.8665 85.6104 11.8867ZM49.4346 33L47.3906 25.8018H47.3291C47.4248 27.0277 47.4727 27.9801 47.4727 28.6592V33H45.0801V23.0059H48.6758L50.7607 30.1016H50.8154L52.8594 23.0059H56.4619V33H53.9805V28.6182C53.9805 28.3903 53.9827 28.1374 53.9873 27.8594C53.9964 27.5814 54.0283 26.9001 54.083 25.8154H54.0215L52.0049 33H49.4346ZM62.1973 33.1367C60.9076 33.1367 59.9049 32.7949 59.1895 32.1113C58.4785 31.4232 58.123 30.4456 58.123 29.1787C58.123 27.8708 58.4535 26.8682 59.1143 26.1709C59.7751 25.4691 60.7184 25.1182 61.9443 25.1182C63.111 25.1182 64.0111 25.4235 64.6445 26.0342C65.2826 26.6403 65.6016 27.5153 65.6016 28.6592V29.8486H60.8232C60.8415 30.2816 60.9987 30.6211 61.2949 30.8672C61.5957 31.1133 62.0036 31.2363 62.5186 31.2363C62.988 31.2363 63.4186 31.193 63.8105 31.1064C64.207 31.0153 64.6354 30.8626 65.0957 30.6484V32.5693C64.6764 32.7835 64.2435 32.9316 63.7969 33.0137C63.3503 33.0957 62.8171 33.1367 62.1973 33.1367ZM62.04 26.9365C61.7256 26.9365 61.4613 27.0368 61.2471 27.2373C61.0374 27.4333 60.9144 27.7432 60.8779 28.167H63.1748C63.1657 27.7933 63.0586 27.4948 62.8535 27.2715C62.653 27.0482 62.3818 26.9365 62.04 26.9365ZM70.9062 31.0244C71.2663 31.0244 71.6969 30.9355 72.1982 30.7578V32.7061C71.8382 32.861 71.4941 32.9704 71.166 33.0342C70.8424 33.1025 70.4619 33.1367 70.0244 33.1367C69.1266 33.1367 68.4795 32.918 68.083 32.4805C67.6865 32.0384 67.4883 31.3617 67.4883 30.4502V27.2578H66.5518V26.1709L67.7412 25.3301L68.4316 23.7031H70.1816V25.2549H72.082V27.2578H70.1816V30.2725C70.1816 30.7738 70.4232 31.0244 70.9062 31.0244ZM77.291 33.1367C76.0013 33.1367 74.9987 32.7949 74.2832 32.1113C73.5723 31.4232 73.2168 30.4456 73.2168 29.1787C73.2168 27.8708 73.5472 26.8682 74.208 26.1709C74.8688 25.4691 75.8122 25.1182 77.0381 25.1182C78.2048 25.1182 79.1048 25.4235 79.7383 26.0342C80.3763 26.6403 80.6953 27.5153 80.6953 28.6592V29.8486H75.917C75.9352 30.2816 76.0924 30.6211 76.3887 30.8672C76.6895 31.1133 77.0973 31.2363 77.6123 31.2363C78.0817 31.2363 78.5124 31.193 78.9043 31.1064C79.3008 31.0153 79.7292 30.8626 80.1895 30.6484V32.5693C79.7702 32.7835 79.3372 32.9316 78.8906 33.0137C78.444 33.0957 77.9108 33.1367 77.291 33.1367ZM77.1338 26.9365C76.8193 26.9365 76.555 27.0368 76.3408 27.2373C76.1312 27.4333 76.0081 27.7432 75.9717 28.167H78.2686C78.2594 27.7933 78.1523 27.4948 77.9473 27.2715C77.7467 27.0482 77.4756 26.9365 77.1338 26.9365ZM86.8818 25.1182C87.1143 25.1182 87.3353 25.1364 87.5449 25.1729L87.6953 25.2002L87.4561 27.7227C87.2373 27.668 86.9342 27.6406 86.5469 27.6406C85.9635 27.6406 85.5397 27.7751 85.2754 28.0439C85.0111 28.3083 84.8789 28.6911 84.8789 29.1924V33H82.2061V25.2549H84.1953L84.6123 26.4922H84.7422C84.9655 26.082 85.2754 25.7516 85.6719 25.501C86.0729 25.2458 86.4762 25.1182 86.8818 25.1182Z" fill="white"/>
</svg>
