<svg version="1" xmlns="http://www.w3.org/2000/svg" width="933.333" height="933.333" viewBox="0 0 700.000000 700.000000"><path d="M138.5 58.7c-5.3.7-13.7 3.4-19.4 6.3-22.2 11.4-34.4 35.7-30.7 61.2 2.9 20.4 19.8 39.8 40.1 46 7.4 2.3 21.4 3.1 28.7 1.5l3.7-.8 29.5 29.6c16.3 16.2 29.6 29.7 29.6 30 0 .3-2.8 4-6.3 8.3-5.8 7.1-9.9 13-15.6 22.4-1.2 2.1-2.8 3.8-3.4 3.8-1.3 0-3.1-.4-34.8-7.3l-19.6-4.2-3.4-4.5c-8.7-11.3-21-17.4-34.9-17.4-32.5.2-53.2 33.8-38.9 62.9 3.4 6.9 10.4 14.5 16.8 18.2 13 7.7 31.5 7.8 43.8.2 3.2-2 8.6-2.2 13.3-.5.8.3 2.6.8 4 1 1.4.3 6.6 1.4 11.5 2.4 5 1.1 12.3 2.8 16.4 3.6 4.1.9 7.7 1.8 7.9 2 .2.2-.1 3.9-.7 8.3-1 7.9-.8 34.8.4 41.3 1.8 10.9 4.9 23.7 7.4 31.5l3 9-27.7 27.8c-20 20-28.1 27.5-29.2 27-.8-.4-6.6-.8-12.8-.9-9.6-.2-12.4.1-18.1 2.1-7.8 2.6-12.2 4.8-17.1 8.4-27.7 20.2-31.5 60.3-8 84 7 7.2 8.9 8.6 15.9 12.1 16.5 8.4 35.4 8.5 53 .3 9.2-4.3 21.3-15.9 25.3-24.3 6.2-13 8.2-24.4 5.9-34.8l-1.1-5.3 22.4-22.4 22.4-22.5 9.3 9.1c13.8 13.5 25.5 22.1 42.4 31 4.4 2.3 8.5 4.6 9.2 5.1.8.6.5 3-1 9.1-2.1 8-2.3 8.2-6.2 9.7-32.7 12.4-47.4 49.6-31.8 80.5 7.4 14.6 20.6 25.4 36.7 30 6 1.8 20.4 2.4 25.9 1.2 23.7-5.1 41.5-22.8 46.3-45.7 1.6-7.8 1.4-18.8-.5-26.4-1.5-6.2-7.7-17.8-11.9-22.7l-4-4.4 2.2-8.4 2.1-8.3 17-.3c9.4-.2 18.4-.6 20-.9 1.7-.4 6.6-1.3 11.1-2.1 8.3-1.5 24.4-6.4 30.1-9 1.7-.8 3.4-1.5 3.8-1.5 1.3 0 18.8-9.1 24.4-12.7 7.9-5 18.7-13.3 25.1-19.2 3-2.8 5.8-5.1 6.1-5.1.9 0 20.1 9.9 21.6 11.2.7.6 1.1 1.3.8 1.7-.2.4.4 4.6 1.4 9.3 5.5 26.5 24.8 47.2 51.6 55.4 8.4 2.6 30.5 2.6 39 0 45.3-13.9 66.1-63.3 44.2-105.1-8.2-15.6-25.4-29.7-42.7-35-15.8-4.8-35.6-3.6-50.4 2.9-5.9 2.6-15.9 9.1-20.2 13.1l-2.6 2.4-4.2-2.1c-2.2-1.1-4.2-2.2-4.4-2.3-.2-.2 1-3.4 2.6-7.2 5.8-13.1 10.9-31.7 12.9-46.8 1-7.6 1-36.2 0-43.5-1.2-8.4-4.6-23.4-6.7-29.6-1.1-3.1-1.7-6-1.4-6.6.3-.5 10.5-8.3 22.7-17.4 14.6-10.9 22.6-16.3 23.6-15.9 8.2 3.2 20.7 4.6 30.1 3.3 21.4-3.1 40.2-19.3 47-40.7 3.3-10.5 3.2-24.8-.3-34.8-3.2-9.3-6.4-14.7-12.7-21.6-19.1-20.9-52.2-24.7-75.5-8.7-4.9 3.4-12.5 11.2-16 16.3-5.7 8.5-8.5 17.9-9.1 29.7l-.4 9.4-17.7 13.4c-9.8 7.3-18.6 13.8-19.6 14.3-1.4.8-2.3.3-4.4-2.3-5.1-6.2-17.8-18.4-24.8-23.9-12.7-9.9-17.2-12.6-33.5-20.6-6.3-3-11.7-5.7-11.9-5.9-.1-.1.2-4 .8-8.6.6-4.6 1.3-10.6 1.6-13.3.3-2.8.8-6.1 1-7.5.2-1.4.7-5 1-8 .3-3 .8-6.6.9-8 .2-1.4 2.6-4.8 5.8-8 8.6-8.6 14.3-23.1 13.2-33.4-1.6-14.9-8.6-26.9-19.8-34.1-20.6-13.1-47.6-7.2-60.5 13-1.8 2.8-4.1 8.1-5.3 11.8-3.7 12.2-1 27.2 6.7 37.3 1.8 2.3 2.3 4.1 2 6.5-.2 1.9-.7 5.4-1 7.9-1.2 10.9-1.7 14.4-2 15.9-.1.9-.6 5-1 9.1s-.8 7.6-.9 7.6c0 .1-5.7.4-12.6.8-16.6.7-27.3 2.5-42.5 6.8-8.5 2.4-23.4 8.3-29.4 11.6l-4.4 2.4-32.2-32.2c-31.1-31.1-32.3-32.4-31.6-35.4.3-1.7.6-7.8.5-13.6-.1-8.2-.6-11.9-2.4-17-6.8-19.2-22.3-33.3-41.7-37.9-5.4-1.3-15.6-2-20.8-1.4zm212 148.4c16.8 6.1 27.5 21 28.1 39.1.5 13.5-3.3 23.3-12.4 32.3-17.5 17.3-44.4 17.4-61.5.2-17.3-17.5-17.2-44.5.2-61.7 12.2-12 29.6-15.8 45.6-9.9zm-74.8 146.2c20.6 10.5 21 39.4.8 51.2-7.8 4.6-19.6 4.7-28 .3-8.8-4.7-14.9-15.2-14.9-25.8.1-13.2 8.1-23.8 21.4-28.1 4.6-1.5 15.4-.3 20.7 2.4zm151.4-.1c9.9 3.6 15.7 7.4 22.9 14.8 25 25.6 21 67.6-8.5 87.9-14.8 10.2-30.5 13-48 8.7-12.4-3.1-23.9-10.9-31.7-21.4-10.8-14.5-14.5-35-9.4-51.4 6.4-20.4 25.2-37.5 44.6-40.5 1.9-.3 3.7-.7 3.9-.9.2-.2 4.7-.2 10 0 6.9.3 11.5 1.1 16.2 2.8z"/></svg>